PathFileType	4	(X/Y/Z)	/Users/niels/Desktop/University/Third Semester/Perception and Action/Exam/Gymnastics Motion Tracking/Code for Gym Tracking/Analyzed Data/Webcam_Backflip/id2_1_trajectory_Sports2D/id2_1_trajectory_Sports2D_px_person00.trc
DataRate	CameraRate	NumFrames	NumMarkers	Units	OrigDataRate	OrigDataStartFrame	OrigNumFrames
29.702970297029704	29.702970297029704	12	22	m	29.702970297029704	63	101
Frame#	Time	Hip			RHip			RKnee			RAnkle			RBigToe			RSmallToe			RHeel			LHip			LKnee			LAnkle			LBigToe			LSmallToe			LHeel			Neck			Head			Nose			RShoulder			RElbow			RWrist			LShoulder			LElbow			LWrist		
		X1	Y1	Z1	X2	Y2	Z2	X3	Y3	Z3	X4	Y4	Z4	X5	Y5	Z5	X6	Y6	Z6	X7	Y7	Z7	X8	Y8	Z8	X9	Y9	Z9	X10	Y10	Z10	X11	Y11	Z11	X12	Y12	Z12	X13	Y13	Z13	X14	Y14	Z14	X15	Y15	Z15	X16	Y16	Z16	X17	Y17	Z17	X18	Y18	Z18	X19	Y19	Z19	X20	Y20	Z20	X21	Y21	Z21	X22	Y22	Z22
63	2.121	1.001248313463667	-0.5922621176213347	0.0	0.9725911495176044	-0.5962277860774381	0.0	0.9738210855613906	-0.7128917727601749	0.0	0.9592725958927592	-0.8282320570172502	0.0	0.9884352858730501	-0.8619591556472623	0.0	0.9699304841320849	-0.8629207227302148	0.0	0.9510987363032752	-0.8464253680608005	0.0	1.027796086166146	-0.5931834938608157	0.0	1.0666954631050074	-0.7013176592031392	0.0	1.0610777718122402	-0.8074604871044604	0.0	1.0790142347344134	-0.8505526149377162	0.0	1.0877873882662363	-0.8450061952650668	0.0	1.0526795134185354	-0.8262514710384331	0.0	1.0084378729902674	-0.4116577413185908	0.0	1.0090730261851295	-0.33956464427356986	0.0	1.0165593799055161	-0.3759159039286003	0.0	0.9623667821974881	-0.4385689126875182	0.0	0.9386836925895727	-0.5240837549125672	0.0	0.970691919362847	-0.5906849637558921	0.0	1.054384579959752	-0.4401577444902271	0.0	1.045311168135918	-0.5151640729777321	0.0	1.0602529173281108	-0.5797450487138881	0.0
64	2.1546666666666665	1.0108433956779783	-0.6002518491321056	0.0	0.9815067400943633	-0.604453193378996	0.0	0.9789395415224597	-0.7201868793625146	0.0	0.9605943921029552	-0.8340824091355898	0.0	0.9895668452374771	-0.8681520835233064	0.0	0.9705650666943713	-0.8690563770729742	0.0	0.9514892888153201	-0.8519560276714777	0.0	1.0383307139079805	-0.6012236363667847	0.0	1.0779632018506442	-0.7073759609686135	0.0	1.0832813270884258	-0.8203458458953159	0.0	1.1022355183682262	-0.8603081261526777	0.0	1.1117338899540465	-0.8555361598038166	0.0	1.075883150697851	-0.8403823568167953	0.0	1.0172826092977547	-0.419708720148853	0.0	1.0179086899998926	-0.34817788547871226	0.0	1.0258860242609629	-0.38383068550280774	0.0	0.9709948402006607	-0.446787223204492	0.0	0.9503981580661106	-0.5344214132215752	0.0	0.9849328403943509	-0.5994504127726253	0.0	1.0641518865036634	-0.44849174119993057	0.0	1.0522082870539016	-0.5243781459564227	0.0	1.064476951362755	-0.5908896750101642	0.0
65	2.188333333333333	1.0204928744280033	-0.6102294916162573	0.0	0.9903810795226252	-0.6145304510623226	0.0	0.9840884081163757	-0.7286994316798441	0.0	0.9614143471801144	-0.8399527482015965	0.0	0.9887754793781179	-0.8745957313671435	0.0	0.969589752106324	-0.8751549485462088	0.0	0.9516511485329568	-0.8572909436778442	0.0	1.048752481121964	-0.611165655732415	0.0	1.0884991983335794	-0.716000300662849	0.0	1.1015638508948435	-0.8336679018776744	0.0	1.1205590090196544	-0.8705691871798031	0.0	1.1305330394601159	-0.8664486644884288	0.0	1.09510969681847	-0.8540340280014412	0.0	1.027229637534195	-0.43005595936122737	0.0	1.0281231962390607	-0.358576745777736	0.0	1.0360014852280344	-0.39390760294194854	0.0	0.9805283049965794	-0.45688682107212253	0.0	0.9620223913875906	-0.5459936309521963	0.0	0.997824137940515	-0.610444534432426	0.0	1.0746846072119387	-0.458913766539861	0.0	1.060596861930537	-0.5352026733575492	0.0	1.0698712292500616	-0.6029007383243266	0.0
66	2.222	1.030137136916876	-0.6216684645244606	0.0	0.9992313880018384	-0.6260769608685741	0.0	0.9895529690473742	-0.737932249958726	0.0	0.9620315637707828	-0.8448869067074268	0.0	0.9863712521992951	-0.8805910069014198	0.0	0.9673267341038359	-0.8804052331443032	0.0	0.9519615593813805	-0.8612240032506218	0.0	1.0589128485273256	-0.6225972755613278	0.0	1.0983481225058933	-0.7269038643223195	0.0	1.1154893455776846	-0.8473793296042407	0.0	1.1335860744221236	-0.8812209485929885	0.0	1.144008368964057	-0.8775786650388294	0.0	1.1098179721900099	-0.8671916520781671	0.0	1.0384830060263455	-0.4419829052876428	0.0	1.0399896238098287	-0.3699163958744257	0.0	1.047226983499864	-0.405421920395653	0.0	0.9910253669470097	-0.4682374510908996	0.0	0.97331740416751	-0.5580961888657104	0.0	1.0086604949265925	-0.6233228322079857	0.0	1.0861543051777829	-0.47072304473654153	0.0	1.0709683930109712	-0.5468069933811209	0.0	1.0767478566575197	-0.6149079667978129	0.0
67	2.2556666666666665	1.0397949094866246	-0.6338526700994261	0.0	1.0082532346706476	-0.6385282675413865	0.0	0.9957409880093938	-0.7476286345255384	0.0	0.9628881011609368	-0.8481083509249522	0.0	0.9832660349776698	-0.8853588992225492	0.0	0.9646761330669772	-0.8840556400829097	0.0	0.952797800556179	-0.8627588328251428	0.0	1.068818465272707	-0.6350241208884974	0.0	1.1074816542384331	-0.7396166207115608	0.0	1.1251414471160743	-0.8614126511578463	0.0	1.141461190307031	-0.8919232322038831	0.0	1.1524471838505483	-0.8886410930416665	0.0	1.1199965574990465	-0.8799012353370262	0.0	1.051118798589134	-0.454503614827556	0.0	1.0536810832989478	-0.3812819545795489	0.0	1.0599018736716506	-0.41742872760696	0.0	1.0025374714362165	-0.4800464673459887	0.0	0.9842344730012816	-0.5700083328121549	0.0	1.0168865502376367	-0.63740397431755	0.0	1.0986859260654018	-0.48307599965583997	0.0	1.083449889452404	-0.5584908930889292	0.0	1.0853995928802753	-0.6263453256256813	0.0
68	2.289333333333333	1.0495279395373578	-0.6458615518620194	0.0	1.0176618701721347	-0.6509857356141372	0.0	1.0031975472568913	-0.7576718175414268	0.0	0.9645588552304529	-0.8489886282356294	0.0	0.9805696738529018	-0.8880961611140041	0.0	0.9627117787333557	-0.8853953479488827	0.0	0.9545912884267429	-0.8612065441884401	0.0	1.078609151082224	-0.6476895973112343	0.0	1.1158596249359265	-0.7534475201519221	0.0	1.1311238400814514	-0.8754372058718443	0.0	1.145075616783725	-0.9020487510424336	0.0	1.1566929177236187	-0.8991548427693907	0.0	1.1262269032045527	-0.8920908236654997	0.0	1.0650324955280004	-0.46650216555487206	0.0	1.0691301715436046	-0.39175606450242184	0.0	1.0741197122494426	-0.42884330034684637	0.0	1.0150696245083075	-0.4913960330996046	0.0	0.9948704102504302	-0.5809798576053641	0.0	1.02222124140417	-0.6515581458880303	0.0	1.112284727648452	-0.49500439741122015	0.0	1.0977834552891708	-0.5696617201885321	0.0	1.096080592518622	-0.6369440554480932	0.0
69	2.323	1.0594208691041342	-0.6566363434003173	0.0	1.0275618720555688	-0.6622623477041016	0.0	1.0125701358679333	-0.7678979238369514	0.0	0.9677701614569097	-0.847022651538179	0.0	0.9792868331198475	-0.888160946020493	0.0	0.9624117164019693	-0.8838845470810418	0.0	0.9579031513429807	-0.8561812811001127	0.0	1.088479595589098	-0.6595253971440572	0.0	1.1234695158380914	-0.767416569339582	0.0	1.134430652952896	-0.8888694184461606	0.0	1.1460161774623654	-0.9110843081232766	0.0	1.1581439212624853	-0.9087242898457871	0.0	1.1295630728797457	-0.9035812085516417	0.0	1.0799118960181746	-0.47684806392197043	0.0	1.0859125684008233	-0.4004462369295839	0.0	1.0895771023360454	-0.4385786948893068	0.0	1.0284876370531582	-0.5013137507965711	0.0	1.005339788075943	-0.5902029693976171	0.0	1.0248176180923607	-0.6642442757908247	0.0	1.1267709375326733	-0.505437974067146	0.0	1.113432469325554	-0.579743375890367	0.0	1.1088678584949563	-0.6467013814255683	0.0
70	2.3566666666666665	1.069530043577358	-0.6651320164041387	0.0	1.0378957315459696	-0.6711341264536655	0.0	1.0244078698589627	-0.777898419163352	0.0	0.973392817960029	-0.8419491243829073	0.0	0.980283969684025	-0.8853119902410973	0.0	0.9646152093790581	-0.8793625739720392	0.0	0.9634485839262161	-0.8476143624583607	0.0	1.0985527601184537	-0.6693161280994967	0.0	1.1303050409403952	-0.7802629089498504	0.0	1.1361038800038068	-0.9009993087686766	0.0	1.1460054806251332	-0.9190006320230112	0.0	1.1583302939822413	-0.917274916162214	0.0	1.1311301490939398	-0.9141138410832285	0.0	1.0952538861162484	-0.484480138391253	0.0	1.1032841778198816	-0.40650107865053065	0.0	1.1056136301288872	-0.44566424750628614	0.0	1.042452138731485	-0.5088485764482338	0.0	1.0156416619527997	-0.5967858447472352	0.0	1.0253790690027396	-0.6737905802929102	0.0	1.141796077316198	-0.5133113550449541	0.0	1.1297271857977564	-0.5881188256047224	0.0	1.1235129669956758	-0.6556966800632812	0.0
71	2.390333333333333	1.079833053210206	-0.6704562835921113	0.0	1.048472193357419	-0.6765811107682671	0.0	1.038929391448542	-0.7867464881387135	0.0	0.9822950705434351	-0.8340177148951295	0.0	0.9844374162879688	-0.8799111783523131	0.0	0.970094381296305	-0.8722725881004535	0.0	0.9719396226868062	-0.8359655364876366	0.0	1.1088069335664053	-0.6759184963095564	0.0	1.1363426460382196	-0.790595757615896	0.0	1.1368978743356297	-0.9110237799180421	0.0	1.1461709204496777	-0.925942428012938	0.0	1.158311962904985	-0.9247991573639035	0.0	1.131743646241204	-0.9232265110558161	0.0	1.110439507505829	-0.488514848769965	0.0	1.120371498240768	-0.4091606534486168	0.0	1.121405746654486	-0.449309132002336	0.0	1.0564632586918807	-0.5131354189476833	0.0	1.0256042222067103	-0.5998396701191501	0.0	1.0251428172382377	-0.6788894841513534	0.0	1.1569282367881923	-0.5177380149948159	0.0	1.1460286809994846	-0.594093967104962	0.0	1.1394547212809403	-0.6636921365156804	0.0
72	2.424	1.0902783939853373	-0.6719826743151007	0.0	1.059108030425709	-0.6779200667902424	0.0	1.0559595730690952	-0.7928646310496159	0.0	0.9951042068514839	-0.8241972188702479	0.0	0.9927370737543992	-0.8730025457693026	0.0	0.9796272901829769	-0.8638100242137539	0.0	0.9838788675587217	-0.8225580939791415	0.0	1.1191474456663264	-0.6784595104761147	0.0	1.1415837943179894	-0.7971739743506111	0.0	1.1372277230806833	-0.9180721093454121	0.0	1.1468375301450042	-0.9315458032991802	0.0	1.158449833591295	-0.9308337938531351	0.0	1.1318663696319335	-0.9301500828444411	0.0	1.1248774165260536	-0.48835845402066935	0.0	1.1363781146581446	-0.4078164364911472	0.0	1.136227237496006	-0.4489353284755741	0.0	1.0699954840270567	-0.5134627364920044	0.0	1.0349622857110845	-0.5987166540946857	0.0	1.0256506757103168	-0.6789997684863814	0.0	1.1717464563944862	-0.5180977104687227	0.0	1.1618943863618154	-0.5968937872790574	0.0	1.1560093366259898	-0.6697681277639767	0.0
73	2.4576666666666664	1.100870129466361	-0.6694362980688964	0.0	1.069767756570393	-0.6748692443222529	0.0	1.0749970476411597	-0.7943833791834233	0.0	1.0120186493863137	-0.8141169733647036	0.0	1.006220994693866	-0.8662004099657334	0.0	0.994002471275011	-0.8558011113354453	0.0	0.9994977912684742	-0.8096453873152403	0.0	1.1295259297112674	-0.6765011084861591	0.0	1.146128936242778	-0.7991394099381158	0.0	1.1373326538343844	-0.9212934005959664	0.0	1.1477992850688943	-0.9348608607685057	0.0	1.158625789092187	-0.9343708479505217	0.0	1.1317855611801932	-0.9339086948896893	0.0	1.1381630966616687	-0.4837369149408942	0.0	1.1507141139419963	-0.40207348421084144	0.0	1.1495946929709282	-0.4441982046285691	0.0	1.082633981015129	-0.5093684792661635	0.0	1.043566498074932	-0.5932143187189278	0.0	1.0283633106518846	-0.6743298291453912	0.0	1.1859226122871656	-0.5140082120267594	0.0	1.1771237868924949	-0.5957664130147852	0.0	1.1725611728616632	-0.6724114907588564	0.0
74	2.491333333333333	1.1116834029735572	-0.6628970760248455	0.0	1.080554953316604	-0.6675438135721019	0.0	1.095291078788819	-0.7899014493610147	0.0	1.0327472288173962	-0.8057598694255924	0.0	1.0256557866071918	-0.8613536194154209	0.0	1.0138029679986509	-0.8502773283733841	0.0	1.018781515657414	-0.799971952564097	0.0	1.1400263163268562	-0.6700751774626496	0.0	1.1502108295806581	-0.7960666057646091	0.0	1.1374649529173488	-0.9199751455731647	0.0	1.1486117262120015	-0.9350553491851316	0.0	1.1586412477525019	-0.9344368413014678	0.0	1.1317806678318414	-0.9335763277642869	0.0	1.1501462522447805	-0.4746813883123038	0.0	1.1630631644021994	-0.39181731931278363	0.0	1.1612587382120716	-0.4350490126224602	0.0	1.0941568146796947	-0.5007724813130979	0.0	1.0515823939284574	-0.5835772575339407	0.0	1.0343160685765354	-0.6654745133870958	0.0	1.199275812613714	-0.505333212427933	0.0	1.1916735104053657	-0.5901674184982195	0.0	1.1886179242800456	-0.6701472730118649	0.0
